<?xml version="1.0" encoding="UTF-8"?>
<svg width="800" height="400" viewBox="0 0 800 400" xmlns="http://www.w3.org/2000/svg">
  <!-- Sky gradient - Using lighter colors now -->
  <defs>
    <linearGradient id="skyGradient" x1="0%" y1="0%" x2="0%" y2="100%">
      <stop offset="0%" style="stop-color:#334477;stop-opacity:1" />
      <stop offset="100%" style="stop-color:#4466aa;stop-opacity:1" />
    </linearGradient>
  </defs>
  
  <!-- Background sky -->
  <rect width="800" height="400" fill="url(#skyGradient)" />
  
  <!-- Stars -->
  <g id="stars">
    <circle cx="50" cy="30" r="1.5" fill="white" />
    <circle cx="120" cy="40" r="2" fill="white" />
    <circle cx="200" cy="20" r="1.5" fill="white" />
    <circle cx="280" cy="50" r="2.5" fill="white" />
    <circle cx="350" cy="35" r="1.5" fill="white" />
    <circle cx="400" cy="25" r="2" fill="white" />
    <circle cx="450" cy="45" r="1.5" fill="white" />
    <circle cx="520" cy="15" r="2.5" fill="white" />
    <circle cx="580" cy="25" r="1.5" fill="white" />
    <circle cx="650" cy="40" r="2" fill="white" />
    <circle cx="720" cy="30" r="1.5" fill="white" />
    <circle cx="760" cy="50" r="1.5" fill="white" />
    <circle cx="70" cy="70" r="1.5" fill="white" />
    <circle cx="150" cy="90" r="2" fill="white" />
    <circle cx="220" cy="60" r="1.5" fill="white" />
    <circle cx="300" cy="80" r="2.5" fill="white" />
    <circle cx="380" cy="75" r="1.5" fill="white" />
    <circle cx="420" cy="95" r="2" fill="white" />
    <circle cx="480" cy="65" r="1.5" fill="white" />
    <circle cx="550" cy="85" r="2.5" fill="white" />
    <circle cx="600" cy="55" r="1.5" fill="white" />
    <circle cx="680" cy="75" r="2" fill="white" />
    <circle cx="740" cy="90" r="1.5" fill="white" />
    <circle cx="780" cy="70" r="1.5" fill="white" />
  </g>
  
  <!-- myob text at the top center with pixel style - lowercase and purple color -->
  <g id="myob-logo" transform="translate(250, 20)">
    <!-- m (lowercase) -->
    <rect x="0" y="20" width="20" height="20" fill="#8a2be2" />
    <rect x="20" y="20" width="20" height="20" fill="#8a2be2" />
    <rect x="40" y="20" width="20" height="20" fill="#8a2be2" />
    <rect x="60" y="20" width="20" height="20" fill="#8a2be2" />
    <rect x="0" y="40" width="20" height="20" fill="#8a2be2" />
    <rect x="40" y="40" width="20" height="20" fill="#8a2be2" />
    <rect x="80" y="40" width="20" height="20" fill="#8a2be2" />
    
    <!-- y (lowercase) -->
    <rect x="120" y="20" width="20" height="20" fill="#8a2be2" />
    <rect x="160" y="20" width="20" height="20" fill="#8a2be2" />
    <rect x="140" y="40" width="20" height="20" fill="#8a2be2" />
    <rect x="140" y="60" width="20" height="20" fill="#8a2be2" />
    <rect x="120" y="80" width="20" height="20" fill="#8a2be2" />
    
    <!-- o (lowercase) -->
    <rect x="200" y="20" width="20" height="20" fill="#8a2be2" />
    <rect x="220" y="20" width="20" height="20" fill="#8a2be2" />
    <rect x="200" y="40" width="20" height="20" fill="#8a2be2" />
    <rect x="240" y="20" width="20" height="20" fill="#8a2be2" />
    <rect x="240" y="40" width="20" height="20" fill="#8a2be2" />
    <rect x="200" y="60" width="20" height="20" fill="#8a2be2" />
    <rect x="220" y="60" width="20" height="20" fill="#8a2be2" />
    <rect x="240" y="60" width="20" height="20" fill="#8a2be2" />
    
    <!-- b (lowercase) - Completely different from 'o' -->
    <rect x="280" y="0" width="20" height="20" fill="#8a2be2" />
    <rect x="280" y="20" width="20" height="20" fill="#8a2be2" />
    <rect x="300" y="20" width="20" height="20" fill="#8a2be2" />
    <rect x="320" y="20" width="20" height="20" fill="#8a2be2" />
    <rect x="280" y="40" width="20" height="20" fill="#8a2be2" />
    <rect x="320" y="40" width="20" height="20" fill="#8a2be2" />
    <rect x="280" y="60" width="20" height="20" fill="#8a2be2" />
    <rect x="300" y="60" width="20" height="20" fill="#8a2be2" />
    <rect x="320" y="60" width="20" height="20" fill="#8a2be2" />
  </g>
  
  <!-- Cityscape silhouette with lighter colors -->
  <g id="cityscape">
    <!-- Distant buildings with lighter colors -->
    <rect x="0" y="240" width="30" height="160" fill="#223366" />
    <rect x="30" y="260" width="20" height="140" fill="#334477" />
    <rect x="50" y="200" width="40" height="200" fill="#223366" />
    <rect x="90" y="230" width="25" height="170" fill="#334488" />
    <rect x="115" y="280" width="30" height="120" fill="#223366" />
    <rect x="145" y="250" width="35" height="150" fill="#334477" />
    <rect x="180" y="220" width="20" height="180" fill="#334488" />
    <rect x="200" y="180" width="45" height="220" fill="#334477" />
    <rect x="245" y="210" width="30" height="190" fill="#223366" />
    <rect x="275" y="260" width="25" height="140" fill="#334477" />
    <rect x="300" y="190" width="50" height="210" fill="#223366" />
    <rect x="350" y="240" width="40" height="160" fill="#334488" />
    <rect x="390" y="220" width="30" height="180" fill="#334477" />
    <rect x="420" y="200" width="60" height="200" fill="#334488" />
    <rect x="480" y="230" width="25" height="170" fill="#223366" />
    <rect x="505" y="250" width="35" height="150" fill="#334477" />
    <rect x="540" y="220" width="45" height="180" fill="#334488" />
    <rect x="585" y="180" width="30" height="220" fill="#223366" />
    <rect x="615" y="210" width="40" height="190" fill="#334477" />
    <rect x="655" y="250" width="20" height="150" fill="#334488" />
    <rect x="675" y="230" width="50" height="170" fill="#223366" />
    <rect x="725" y="260" width="35" height="140" fill="#334477" />
    <rect x="760" y="240" width="40" height="160" fill="#334488" />
    
    <!-- Windows on buildings (random pattern) -->
    <g fill="#ffdd55" opacity="0.8">
      <!-- Building windows scattered across the cityscape -->
      <rect x="10" y="260" width="5" height="5" />
      <rect x="15" y="280" width="5" height="5" />
      <rect x="10" y="310" width="5" height="5" />
      <rect x="15" y="340" width="5" height="5" />
      <rect x="10" y="360" width="5" height="5" />
      
      <rect x="35" y="270" width="5" height="5" />
      <rect x="35" y="290" width="5" height="5" />
      <rect x="35" y="320" width="5" height="5" />
      <rect x="35" y="350" width="5" height="5" />
      <rect x="35" y="380" width="5" height="5" />
      
      <rect x="60" y="220" width="5" height="5" />
      <rect x="70" y="220" width="5" height="5" />
      <rect x="60" y="250" width="5" height="5" />
      <rect x="70" y="250" width="5" height="5" />
      <rect x="60" y="280" width="5" height="5" />
      <rect x="70" y="280" width="5" height="5" />
      <rect x="60" y="310" width="5" height="5" />
      <rect x="70" y="310" width="5" height="5" />
      <rect x="60" y="340" width="5" height="5" />
      <rect x="70" y="340" width="5" height="5" />
      <rect x="60" y="370" width="5" height="5" />
      <rect x="70" y="370" width="5" height="5" />
      
      <!-- More windows scattered across other buildings -->
      <rect x="100" y="250" width="5" height="5" />
      <rect x="100" y="280" width="5" height="5" />
      <rect x="100" y="310" width="5" height="5" />
      <rect x="100" y="340" width="5" height="5" />
      <rect x="100" y="370" width="5" height="5" />
      
      <rect x="130" y="300" width="5" height="5" />
      <rect x="130" y="320" width="5" height="5" />
      <rect x="130" y="340" width="5" height="5" />
      <rect x="130" y="360" width="5" height="5" />
      <rect x="130" y="380" width="5" height="5" />
      
      <rect x="155" y="270" width="5" height="5" />
      <rect x="165" y="270" width="5" height="5" />
      <rect x="155" y="290" width="5" height="5" />
      <rect x="165" y="290" width="5" height="5" />
      <rect x="155" y="310" width="5" height="5" />
      <rect x="165" y="310" width="5" height="5" />
      <rect x="155" y="330" width="5" height="5" />
      <rect x="165" y="330" width="5" height="5" />
      <rect x="155" y="350" width="5" height="5" />
      <rect x="165" y="350" width="5" height="5" />
      <rect x="155" y="370" width="5" height="5" />
      <rect x="165" y="370" width="5" height="5" />
      
      <!-- Continue with more windows -->
      <rect x="210" y="200" width="5" height="5" />
      <rect x="220" y="200" width="5" height="5" />
      <rect x="210" y="220" width="5" height="5" />
      <rect x="220" y="220" width="5" height="5" />
      <rect x="210" y="240" width="5" height="5" />
      <rect x="220" y="240" width="5" height="5" />
      <rect x="210" y="260" width="5" height="5" />
      <rect x="220" y="260" width="5" height="5" />
      <rect x="210" y="280" width="5" height="5" />
      <rect x="220" y="280" width="5" height="5" />
      <rect x="210" y="300" width="5" height="5" />
      <rect x="220" y="300" width="5" height="5" />
      <rect x="210" y="320" width="5" height="5" />
      <rect x="220" y="320" width="5" height="5" />
      <rect x="210" y="340" width="5" height="5" />
      <rect x="220" y="340" width="5" height="5" />
      <rect x="210" y="360" width="5" height="5" />
      <rect x="220" y="360" width="5" height="5" />
      
      <!-- Even more windows -->
      <rect x="320" y="210" width="5" height="5" />
      <rect x="330" y="210" width="5" height="5" />
      <rect x="320" y="230" width="5" height="5" />
      <rect x="330" y="230" width="5" height="5" />
      <rect x="320" y="250" width="5" height="5" />
      <rect x="330" y="250" width="5" height="5" />
      <rect x="320" y="270" width="5" height="5" />
      <rect x="330" y="270" width="5" height="5" />
      <rect x="320" y="290" width="5" height="5" />
      <rect x="330" y="290" width="5" height="5" />
      <rect x="320" y="310" width="5" height="5" />
      <rect x="330" y="310" width="5" height="5" />
      <rect x="320" y="330" width="5" height="5" />
      <rect x="330" y="330" width="5" height="5" />
      <rect x="320" y="350" width="5" height="5" />
      <rect x="330" y="350" width="5" height="5" />
      <rect x="320" y="370" width="5" height="5" />
      <rect x="330" y="370" width="5" height="5" />
      
      <!-- Windows on right side buildings -->
      <rect x="440" y="220" width="5" height="5" />
      <rect x="450" y="220" width="5" height="5" />
      <rect x="440" y="240" width="5" height="5" />
      <rect x="450" y="240" width="5" height="5" />
      <rect x="440" y="260" width="5" height="5" />
      <rect x="450" y="260" width="5" height="5" />
      <rect x="440" y="280" width="5" height="5" />
      <rect x="450" y="280" width="5" height="5" />
      <rect x="440" y="300" width="5" height="5" />
      <rect x="450" y="300" width="5" height="5" />
      <rect x="440" y="320" width="5" height="5" />
      <rect x="450" y="320" width="5" height="5" />
      <rect x="440" y="340" width="5" height="5" />
      <rect x="450" y="340" width="5" height="5" />
      <rect x="440" y="360" width="5" height="5" />
      <rect x="450" y="360" width="5" height="5" />
      
      <rect x="550" y="240" width="5" height="5" />
      <rect x="560" y="240" width="5" height="5" />
      <rect x="550" y="260" width="5" height="5" />
      <rect x="560" y="260" width="5" height="5" />
      <rect x="550" y="280" width="5" height="5" />
      <rect x="560" y="280" width="5" height="5" />
      <rect x="550" y="300" width="5" height="5" />
      <rect x="560" y="300" width="5" height="5" />
      <rect x="550" y="320" width="5" height="5" />
      <rect x="560" y="320" width="5" height="5" />
      <rect x="550" y="340" width="5" height="5" />
      <rect x="560" y="340" width="5" height="5" />
      <rect x="550" y="360" width="5" height="5" />
      <rect x="560" y="360" width="5" height="5" />
      
      <rect x="600" y="200" width="5" height="5" />
      <rect x="600" y="220" width="5" height="5" />
      <rect x="600" y="240" width="5" height="5" />
      <rect x="600" y="260" width="5" height="5" />
      <rect x="600" y="280" width="5" height="5" />
      <rect x="600" y="300" width="5" height="5" />
      <rect x="600" y="320" width="5" height="5" />
      <rect x="600" y="340" width="5" height="5" />
      <rect x="600" y="360" width="5" height="5" />
      <rect x="600" y="380" width="5" height="5" />
      
      <rect x="690" y="240" width="5" height="5" />
      <rect x="700" y="240" width="5" height="5" />
      <rect x="690" y="260" width="5" height="5" />
      <rect x="700" y="260" width="5" height="5" />
      <rect x="690" y="280" width="5" height="5" />
      <rect x="700" y="280" width="5" height="5" />
      <rect x="690" y="300" width="5" height="5" />
      <rect x="700" y="300" width="5" height="5" />
      <rect x="690" y="320" width="5" height="5" />
      <rect x="700" y="320" width="5" height="5" />
      <rect x="690" y="340" width="5" height="5" />
      <rect x="700" y="340" width="5" height="5" />
      <rect x="690" y="360" width="5" height="5" />
      <rect x="700" y="360" width="5" height="5" />
      
      <rect x="770" y="260" width="5" height="5" />
      <rect x="780" y="260" width="5" height="5" />
      <rect x="770" y="280" width="5" height="5" />
      <rect x="780" y="280" width="5" height="5" />
      <rect x="770" y="300" width="5" height="5" />
      <rect x="780" y="300" width="5" height="5" />
      <rect x="770" y="320" width="5" height="5" />
      <rect x="780" y="320" width="5" height="5" />
      <rect x="770" y="340" width="5" height="5" />
      <rect x="780" y="340" width="5" height="5" />
      <rect x="770" y="360" width="5" height="5" />
      <rect x="780" y="360" width="5" height="5" />
    </g>
  </g>
</svg>