<?xml version="1.0" encoding="UTF-8"?>
<svg width="128" height="96" viewBox="0 0 128 96" xmlns="http://www.w3.org/2000/svg">
  <!-- SVG for enemy (tax man) sprite sheet with 4 frames in 2 rows -->
  <!-- Row 1: Running animation (4 frames) -->
  <!-- Frame 1 -->
  <g transform="translate(0, 0)">
    <!-- Body (black suit) -->
    <rect x="8" y="12" width="16" height="24" fill="#222222" rx="2" />
    <!-- Head -->
    <rect x="6" y="0" width="20" height="16" fill="#ffccaa" rx="2" />
    <!-- Hair (slicked back) -->
    <rect x="4" y="0" width="22" height="4" fill="#333333" rx="1" />
    <!-- Eyes (facing left) -->
    <circle cx="12" cy="8" r="1.5" fill="#000000" />
    <!-- Bowtie -->
    <rect x="12" y="14" width="8" height="2" fill="#880000" />
    <polygon points="16,13 13,15 19,15 16,13" fill="#880000" />
    <!-- Arms -->
    <rect x="4" y="16" width="4" height="8" fill="#ffccaa" />
    <rect x="24" y="16" width="4" height="8" fill="#ffccaa" />
    <!-- Briefcase -->
    <rect x="26" y="23" width="6" height="8" fill="#222222" rx="1" />
    <rect x="28" y="22" width="2" height="2" fill="#999999" />
    <!-- Feet (black shoes) -->
    <rect x="6" y="36" width="8" height="4" fill="#111111" />
    <rect x="18" y="36" width="8" height="4" fill="#111111" />
    <!-- Pants -->
    <rect x="10" y="20" width="12" height="16" fill="#222222" />
    <!-- Suit details -->
    <rect x="10" y="20" width="4" height="4" fill="#333333" />
    <rect x="18" y="20" width="4" height="4" fill="#333333" />
  </g>
  <!-- Frame 2 -->
  <g transform="translate(32, 0)">
    <!-- Body (black suit) -->
    <rect x="8" y="12" width="16" height="24" fill="#222222" rx="2" />
    <!-- Head -->
    <rect x="6" y="0" width="20" height="16" fill="#ffccaa" rx="2" />
    <!-- Hair (slicked back) -->
    <rect x="4" y="0" width="22" height="4" fill="#333333" rx="1" />
    <!-- Eyes (facing left) -->
    <circle cx="12" cy="8" r="1.5" fill="#000000" />
    <!-- Bowtie -->
    <rect x="12" y="14" width="8" height="2" fill="#880000" />
    <polygon points="16,13 13,15 19,15 16,13" fill="#880000" />
    <!-- Arms -->
    <rect x="4" y="18" width="4" height="8" fill="#ffccaa" />
    <rect x="24" y="16" width="4" height="8" fill="#ffccaa" />
    <!-- Briefcase -->
    <rect x="26" y="23" width="6" height="8" fill="#222222" rx="1" />
    <rect x="28" y="22" width="2" height="2" fill="#999999" />
    <!-- Feet (black shoes) -->
    <rect x="4" y="36" width="8" height="4" fill="#111111" />
    <rect x="20" y="36" width="8" height="4" fill="#111111" />
    <!-- Pants -->
    <rect x="10" y="20" width="12" height="16" fill="#222222" />
    <!-- Suit details -->
    <rect x="10" y="20" width="4" height="4" fill="#333333" />
    <rect x="18" y="20" width="4" height="4" fill="#333333" />
  </g>
  <!-- Frame 3 -->
  <g transform="translate(64, 0)">
    <!-- Body (black suit) -->
    <rect x="8" y="12" width="16" height="24" fill="#222222" rx="2" />
    <!-- Head -->
    <rect x="6" y="0" width="20" height="16" fill="#ffccaa" rx="2" />
    <!-- Hair (slicked back) -->
    <rect x="4" y="0" width="22" height="4" fill="#333333" rx="1" />
    <!-- Eyes (facing left) -->
    <circle cx="12" cy="8" r="1.5" fill="#000000" />
    <!-- Bowtie -->
    <rect x="12" y="14" width="8" height="2" fill="#880000" />
    <polygon points="16,13 13,15 19,15 16,13" fill="#880000" />
    <!-- Arms -->
    <rect x="4" y="16" width="4" height="8" fill="#ffccaa" />
    <rect x="24" y="16" width="4" height="8" fill="#ffccaa" />
    <!-- Briefcase -->
    <rect x="26" y="23" width="6" height="8" fill="#222222" rx="1" />
    <rect x="28" y="22" width="2" height="2" fill="#999999" />
    <!-- Feet (black shoes) -->
    <rect x="8" y="36" width="8" height="4" fill="#111111" />
    <rect x="16" y="36" width="8" height="4" fill="#111111" />
    <!-- Pants -->
    <rect x="10" y="20" width="12" height="16" fill="#222222" />
    <!-- Suit details -->
    <rect x="10" y="20" width="4" height="4" fill="#333333" />
    <rect x="18" y="20" width="4" height="4" fill="#333333" />
  </g>
  <!-- Frame 4 -->
  <g transform="translate(96, 0)">
    <!-- Body (black suit) -->
    <rect x="8" y="12" width="16" height="24" fill="#222222" rx="2" />
    <!-- Head -->
    <rect x="6" y="0" width="20" height="16" fill="#ffccaa" rx="2" />
    <!-- Hair (slicked back) -->
    <rect x="4" y="0" width="22" height="4" fill="#333333" rx="1" />
    <!-- Eyes (facing left) -->
    <circle cx="12" cy="8" r="1.5" fill="#000000" />
    <!-- Bowtie -->
    <rect x="12" y="14" width="8" height="2" fill="#880000" />
    <polygon points="16,13 13,15 19,15 16,13" fill="#880000" />
    <!-- Arms -->
    <rect x="4" y="16" width="4" height="8" fill="#ffccaa" />
    <rect x="24" y="18" width="4" height="8" fill="#ffccaa" />
    <!-- Briefcase -->
    <rect x="26" y="25" width="6" height="8" fill="#222222" rx="1" />
    <rect x="28" y="24" width="2" height="2" fill="#999999" />
    <!-- Feet (black shoes) -->
    <rect x="6" y="36" width="8" height="4" fill="#111111" />
    <rect x="18" y="36" width="8" height="4" fill="#111111" />
    <!-- Pants -->
    <rect x="10" y="20" width="12" height="16" fill="#222222" />
    <!-- Suit details -->
    <rect x="10" y="20" width="4" height="4" fill="#333333" />
    <rect x="18" y="20" width="4" height="4" fill="#333333" />
  </g>
  
  <!-- Row 2: Attacking animation (4 frames) -->
  <!-- Frame 1 -->
  <g transform="translate(0, 48)">
    <!-- Body (black suit) -->
    <rect x="8" y="12" width="16" height="20" fill="#222222" rx="2" />
    <!-- Head -->
    <rect x="6" y="0" width="20" height="16" fill="#ffccaa" rx="2" />
    <!-- Hair (slicked back) -->
    <rect x="4" y="0" width="22" height="4" fill="#333333" rx="1" />
    <!-- Eyes (facing left, angry) -->
    <circle cx="12" cy="8" r="1.5" fill="#000000" />
    <rect x="9" y="6" width="4" height="1" fill="#333333" />
    <!-- Bowtie -->
    <rect x="12" y="14" width="8" height="2" fill="#880000" />
    <polygon points="16,13 13,15 19,15 16,13" fill="#880000" />
    <!-- Arms (attacking position) -->
    <rect x="2" y="12" width="6" height="4" fill="#ffccaa" />
    <rect x="0" y="10" width="4" height="4" fill="#ffccaa" />
    <rect x="24" y="14" width="4" height="6" fill="#ffccaa" />
    <!-- Briefcase (open) -->
    <rect x="0" y="14" width="8" height="6" fill="#222222" rx="1" />
    <rect x="0" y="13" width="8" height="1" fill="#999999" />
    <rect x="3" y="16" width="2" height="1" fill="#880000" />
    <!-- Tax form -->
    <rect x="-4" y="12" width="4" height="6" fill="#ffffff" />
    <rect x="-4" y="13" width="4" height="1" fill="#880000" />
    <rect x="-4" y="15" width="4" height="1" fill="#880000" />
    <!-- Feet (black shoes) -->
    <rect x="6" y="32" width="8" height="4" fill="#111111" />
    <rect x="18" y="32" width="8" height="4" fill="#111111" />
    <!-- Pants -->
    <rect x="10" y="18" width="12" height="14" fill="#222222" />
    <!-- Suit details -->
    <rect x="10" y="18" width="4" height="4" fill="#333333" />
    <rect x="18" y="18" width="4" height="4" fill="#333333" />
  </g>
  <!-- Frame 2 -->
  <g transform="translate(32, 48)">
    <!-- Body (black suit) -->
    <rect x="8" y="12" width="16" height="20" fill="#222222" rx="2" />
    <!-- Head -->
    <rect x="6" y="0" width="20" height="16" fill="#ffccaa" rx="2" />
    <!-- Hair (slicked back) -->
    <rect x="4" y="0" width="22" height="4" fill="#333333" rx="1" />
    <!-- Eyes (facing left, angry) -->
    <circle cx="12" cy="8" r="1.5" fill="#000000" />
    <rect x="9" y="6" width="4" height="1" fill="#333333" />
    <!-- Bowtie -->
    <rect x="12" y="14" width="8" height="2" fill="#880000" />
    <polygon points="16,13 13,15 19,15 16,13" fill="#880000" />
    <!-- Arms (attacking position) -->
    <rect x="1" y="12" width="6" height="4" fill="#ffccaa" />
    <rect x="-2" y="10" width="4" height="4" fill="#ffccaa" />
    <rect x="24" y="14" width="4" height="6" fill="#ffccaa" />
    <!-- Briefcase (open) -->
    <rect x="-2" y="14" width="8" height="6" fill="#222222" rx="1" />
    <rect x="-2" y="13" width="8" height="1" fill="#999999" />
    <rect x="1" y="16" width="2" height="1" fill="#880000" />
    <!-- Tax form -->
    <rect x="-6" y="11" width="4" height="6" fill="#ffffff" />
    <rect x="-6" y="12" width="4" height="1" fill="#880000" />
    <rect x="-6" y="14" width="4" height="1" fill="#880000" />
    <!-- Feet (black shoes) -->
    <rect x="4" y="32" width="8" height="4" fill="#111111" />
    <rect x="20" y="32" width="8" height="4" fill="#111111" />
    <!-- Pants -->
    <rect x="10" y="18" width="12" height="14" fill="#222222" />
    <!-- Suit details -->
    <rect x="10" y="18" width="4" height="4" fill="#333333" />
    <rect x="18" y="18" width="4" height="4" fill="#333333" />
  </g>
  <!-- Frame 3 -->
  <g transform="translate(64, 48)">
    <!-- Body (black suit) -->
    <rect x="8" y="12" width="16" height="20" fill="#222222" rx="2" />
    <!-- Head -->
    <rect x="6" y="0" width="20" height="16" fill="#ffccaa" rx="2" />
    <!-- Hair (slicked back) -->
    <rect x="4" y="0" width="22" height="4" fill="#333333" rx="1" />
    <!-- Eyes (facing left, angry) -->
    <circle cx="12" cy="8" r="1.5" fill="#000000" />
    <rect x="9" y="6" width="4" height="1" fill="#333333" />
    <!-- Mouth (evil smile) -->
    <rect x="10" y="12" width="6" height="1" fill="#990000" />
    <!-- Bowtie -->
    <rect x="12" y="14" width="8" height="2" fill="#880000" />
    <polygon points="16,13 13,15 19,15 16,13" fill="#880000" />
    <!-- Arms (attacking position) -->
    <rect x="2" y="14" width="6" height="4" fill="#ffccaa" />
    <rect x="24" y="14" width="4" height="6" fill="#ffccaa" />
    <!-- Briefcase (closed) -->
    <rect x="2" y="20" width="8" height="6" fill="#222222" rx="1" />
    <rect x="4" y="19" width="4" height="1" fill="#999999" />
    <!-- Feet (black shoes) -->
    <rect x="6" y="32" width="8" height="4" fill="#111111" />
    <rect x="18" y="32" width="8" height="4" fill="#111111" />
    <!-- Pants -->
    <rect x="10" y="18" width="12" height="14" fill="#222222" />
    <!-- Suit details -->
    <rect x="10" y="18" width="4" height="4" fill="#333333" />
    <rect x="18" y="18" width="4" height="4" fill="#333333" />
  </g>
  <!-- Frame 4 -->
  <g transform="translate(96, 48)">
    <!-- Body (black suit) -->
    <rect x="8" y="12" width="16" height="20" fill="#222222" rx="2" />
    <!-- Head -->
    <rect x="6" y="0" width="20" height="16" fill="#ffccaa" rx="2" />
    <!-- Hair (slicked back) -->
    <rect x="4" y="0" width="22" height="4" fill="#333333" rx="1" />
    <!-- Eyes (facing left) -->
    <circle cx="12" cy="8" r="1.5" fill="#000000" />
    <!-- Bowtie -->
    <rect x="12" y="14" width="8" height="2" fill="#880000" />
    <polygon points="16,13 13,15 19,15 16,13" fill="#880000" />
    <!-- Arms -->
    <rect x="4" y="14" width="4" height="6" fill="#ffccaa" />
    <rect x="24" y="14" width="4" height="6" fill="#ffccaa" />
    <!-- Briefcase -->
    <rect x="2" y="22" width="6" height="8" fill="#222222" rx="1" />
    <rect x="4" y="21" width="2" height="2" fill="#999999" />
    <!-- Feet (black shoes) -->
    <rect x="8" y="32" width="6" height="4" fill="#111111" />
    <rect x="16" y="32" width="6" height="4" fill="#111111" />
    <!-- Pants -->
    <rect x="10" y="18" width="12" height="14" fill="#222222" />
    <!-- Suit details -->
    <rect x="10" y="18" width="4" height="4" fill="#333333" />
    <rect x="18" y="18" width="4" height="4" fill="#333333" />
  </g>
</svg>