<?xml version="1.0" encoding="UTF-8"?>
<svg width="128" height="32" viewBox="0 0 128 32" xmlns="http://www.w3.org/2000/svg">
  <!-- SVG for obstacles sprite sheet with 4 different accounting-themed obstacles -->
  <!-- Obstacle 1: Calculator -->
  <g transform="translate(0, 0)">
    <rect x="6" y="8" width="20" height="18" rx="2" fill="#6b7280" stroke="#4b5563" stroke-width="1" />
    <rect x="8" y="10" width="16" height="5" fill="#e5e7eb" stroke="#9ca3af" stroke-width="0.5" />
    <!-- Calculator buttons -->
    <circle cx="10" cy="19" r="1.5" fill="#e5e7eb" />
    <circle cx="14" cy="19" r="1.5" fill="#e5e7eb" />
    <circle cx="18" cy="19" r="1.5" fill="#e5e7eb" />
    <circle cx="22" cy="19" r="1.5" fill="#4f46e5" />
    <circle cx="10" cy="23" r="1.5" fill="#e5e7eb" />
    <circle cx="14" cy="23" r="1.5" fill="#e5e7eb" />
    <circle cx="18" cy="23" r="1.5" fill="#e5e7eb" />
    <circle cx="22" cy="23" r="1.5" fill="#4f46e5" />
  </g>
  
  <!-- Obstacle 2: Ledger Book -->
  <g transform="translate(32, 0)">
    <rect x="8" y="8" width="16" height="20" rx="1" fill="#8b5cf6" stroke="#7c3aed" stroke-width="1" />
    <rect x="10" y="10" width="12" height="2" fill="#e5e7eb" stroke="#9ca3af" stroke-width="0.5" />
    <rect x="10" y="14" width="12" height="2" fill="#e5e7eb" stroke="#9ca3af" stroke-width="0.5" />
    <rect x="10" y="18" width="12" height="2" fill="#e5e7eb" stroke="#9ca3af" stroke-width="0.5" />
    <rect x="10" y="22" width="12" height="2" fill="#e5e7eb" stroke="#9ca3af" stroke-width="0.5" />
  </g>
  
  <!-- Obstacle 3: Tax Form -->
  <g transform="translate(64, 0)">
    <rect x="8" y="8" width="16" height="20" fill="#f87171" stroke="#ef4444" stroke-width="1" />
    <rect x="10" y="10" width="12" height="1" fill="#f3f4f6" />
    <rect x="10" y="13" width="12" height="1" fill="#f3f4f6" />
    <rect x="10" y="16" width="12" height="1" fill="#f3f4f6" />
    <rect x="10" y="19" width="12" height="1" fill="#f3f4f6" />
    <rect x="10" y="22" width="12" height="1" fill="#f3f4f6" />
    <rect x="10" y="25" width="6" height="1" fill="#f3f4f6" />
  </g>
  
  <!-- Obstacle 4: Stack of Coins (Blue to differentiate from gold coins) -->
  <g transform="translate(96, 0)">
    <ellipse cx="16" cy="26" rx="8" ry="2" fill="#3b82f6" stroke="#2563eb" stroke-width="1" />
    <ellipse cx="16" cy="24" rx="8" ry="2" fill="#3b82f6" stroke="#2563eb" stroke-width="1" />
    <ellipse cx="16" cy="22" rx="8" ry="2" fill="#3b82f6" stroke="#2563eb" stroke-width="1" />
    <ellipse cx="16" cy="20" rx="8" ry="2" fill="#3b82f6" stroke="#2563eb" stroke-width="1" />
    <ellipse cx="16" cy="18" rx="8" ry="2" fill="#3b82f6" stroke="#2563eb" stroke-width="1" />
    <ellipse cx="16" cy="16" rx="8" ry="2" fill="#3b82f6" stroke="#2563eb" stroke-width="1" />
    <ellipse cx="16" cy="14" rx="8" ry="2" fill="#3b82f6" stroke="#2563eb" stroke-width="1" />
  </g>
</svg>