<?xml version="1.0" encoding="UTF-8"?>
<svg width="128" height="96" viewBox="0 0 128 96" xmlns="http://www.w3.org/2000/svg">
  <!-- SVG for player sprite sheet with 4 frames in 2 rows -->
  <!-- Row 1: Running animation (4 frames) -->
  <!-- Frame 1 -->
  <g transform="translate(0, 0)">
    <!-- Body -->
    <rect x="8" y="12" width="16" height="24" fill="#8a2be2" rx="2" />
    <!-- Head -->
    <rect x="6" y="0" width="20" height="16" fill="#ffccaa" rx="2" />
    <!-- Hat -->
    <rect x="4" y="0" width="24" height="6" fill="#9932cc" rx="1" />
    <!-- Eyes (moved to right side) -->
    <circle cx="20" cy="8" r="1.5" fill="#000000" />
    <!-- Mustache (shifted to right) -->
    <rect x="14" y="12" width="8" height="2" fill="#5e35b1" />
    <!-- Arms -->
    <rect x="4" y="16" width="4" height="8" fill="#ffccaa" />
    <rect x="24" y="16" width="4" height="8" fill="#ffccaa" />
    <!-- Feet -->
    <rect x="6" y="36" width="8" height="4" fill="#9932cc" />
    <rect x="18" y="36" width="8" height="4" fill="#9932cc" />
    <!-- Overalls -->
    <rect x="10" y="20" width="12" height="16" fill="#9370DB" />
    <rect x="10" y="20" width="4" height="4" fill="#8a2be2" />
    <rect x="18" y="20" width="4" height="4" fill="#8a2be2" />
  </g>
  <!-- Frame 2 -->
  <g transform="translate(32, 0)">
    <!-- Body -->
    <rect x="8" y="12" width="16" height="24" fill="#8a2be2" rx="2" />
    <!-- Head -->
    <rect x="6" y="0" width="20" height="16" fill="#ffccaa" rx="2" />
    <!-- Hat -->
    <rect x="4" y="0" width="24" height="6" fill="#9932cc" rx="1" />
    <!-- Eyes (moved to right side) -->
    <circle cx="20" cy="8" r="1.5" fill="#000000" />
    <!-- Mustache (shifted to right) -->
    <rect x="14" y="12" width="8" height="2" fill="#5e35b1" />
    <!-- Arms -->
    <rect x="4" y="18" width="4" height="8" fill="#ffccaa" />
    <rect x="24" y="16" width="4" height="8" fill="#ffccaa" />
    <!-- Feet -->
    <rect x="4" y="36" width="8" height="4" fill="#9932cc" />
    <rect x="20" y="36" width="8" height="4" fill="#9932cc" />
    <!-- Overalls -->
    <rect x="10" y="20" width="12" height="16" fill="#9370DB" />
    <rect x="10" y="20" width="4" height="4" fill="#8a2be2" />
    <rect x="18" y="20" width="4" height="4" fill="#8a2be2" />
  </g>
  <!-- Frame 3 -->
  <g transform="translate(64, 0)">
    <!-- Body -->
    <rect x="8" y="12" width="16" height="24" fill="#8a2be2" rx="2" />
    <!-- Head -->
    <rect x="6" y="0" width="20" height="16" fill="#ffccaa" rx="2" />
    <!-- Hat -->
    <rect x="4" y="0" width="24" height="6" fill="#9932cc" rx="1" />
    <!-- Eyes (moved to right side) -->
    <circle cx="20" cy="8" r="1.5" fill="#000000" />
    <!-- Mustache (shifted to right) -->
    <rect x="14" y="12" width="8" height="2" fill="#5e35b1" />
    <!-- Arms -->
    <rect x="4" y="16" width="4" height="8" fill="#ffccaa" />
    <rect x="24" y="16" width="4" height="8" fill="#ffccaa" />
    <!-- Feet -->
    <rect x="8" y="36" width="8" height="4" fill="#9932cc" />
    <rect x="16" y="36" width="8" height="4" fill="#9932cc" />
    <!-- Overalls -->
    <rect x="10" y="20" width="12" height="16" fill="#9370DB" />
    <rect x="10" y="20" width="4" height="4" fill="#8a2be2" />
    <rect x="18" y="20" width="4" height="4" fill="#8a2be2" />
  </g>
  <!-- Frame 4 -->
  <g transform="translate(96, 0)">
    <!-- Body -->
    <rect x="8" y="12" width="16" height="24" fill="#8a2be2" rx="2" />
    <!-- Head -->
    <rect x="6" y="0" width="20" height="16" fill="#ffccaa" rx="2" />
    <!-- Hat -->
    <rect x="4" y="0" width="24" height="6" fill="#9932cc" rx="1" />
    <!-- Eyes (moved to right side) -->
    <circle cx="20" cy="8" r="1.5" fill="#000000" />
    <!-- Mustache (shifted to right) -->
    <rect x="14" y="12" width="8" height="2" fill="#5e35b1" />
    <!-- Arms -->
    <rect x="4" y="16" width="4" height="8" fill="#ffccaa" />
    <rect x="24" y="18" width="4" height="8" fill="#ffccaa" />
    <!-- Feet -->
    <rect x="6" y="36" width="8" height="4" fill="#9932cc" />
    <rect x="18" y="36" width="8" height="4" fill="#9932cc" />
    <!-- Overalls -->
    <rect x="10" y="20" width="12" height="16" fill="#9370DB" />
    <rect x="10" y="20" width="4" height="4" fill="#8a2be2" />
    <rect x="18" y="20" width="4" height="4" fill="#8a2be2" />
  </g>
  
  <!-- Row 2: Jumping animation (4 frames) -->
  <!-- Frame 1 -->
  <g transform="translate(0, 48)">
    <!-- Body -->
    <rect x="8" y="12" width="16" height="20" fill="#8a2be2" rx="2" />
    <!-- Head -->
    <rect x="6" y="0" width="20" height="16" fill="#ffccaa" rx="2" />
    <!-- Hat -->
    <rect x="4" y="0" width="24" height="6" fill="#9932cc" rx="1" />
    <!-- Eyes (moved to right side) -->
    <circle cx="20" cy="8" r="1.5" fill="#000000" />
    <!-- Mustache (shifted to right) -->
    <rect x="14" y="12" width="8" height="2" fill="#5e35b1" />
    <!-- Arms -->
    <rect x="4" y="14" width="4" height="6" fill="#ffccaa" />
    <rect x="24" y="14" width="4" height="6" fill="#ffccaa" />
    <!-- Feet (spread while jumping) -->
    <rect x="4" y="32" width="8" height="4" fill="#9932cc" />
    <rect x="20" y="32" width="8" height="4" fill="#9932cc" />
    <!-- Overalls -->
    <rect x="10" y="18" width="12" height="14" fill="#9370DB" />
    <rect x="10" y="18" width="4" height="4" fill="#8a2be2" />
    <rect x="18" y="18" width="4" height="4" fill="#8a2be2" />
  </g>
  <!-- Frame 2 -->
  <g transform="translate(32, 48)">
    <!-- Body -->
    <rect x="8" y="12" width="16" height="20" fill="#8a2be2" rx="2" />
    <!-- Head -->
    <rect x="6" y="0" width="20" height="16" fill="#ffccaa" rx="2" />
    <!-- Hat -->
    <rect x="4" y="0" width="24" height="6" fill="#9932cc" rx="1" />
    <!-- Eyes (moved to right side) -->
    <circle cx="20" cy="8" r="1.5" fill="#000000" />
    <!-- Mustache (shifted to right) -->
    <rect x="14" y="12" width="8" height="2" fill="#5e35b1" />
    <!-- Arms (spread while jumping) -->
    <rect x="2" y="12" width="6" height="4" fill="#ffccaa" />
    <rect x="24" y="12" width="6" height="4" fill="#ffccaa" />
    <!-- Feet (spread while jumping) -->
    <rect x="2" y="32" width="8" height="4" fill="#9932cc" />
    <rect x="22" y="32" width="8" height="4" fill="#9932cc" />
    <!-- Overalls -->
    <rect x="10" y="18" width="12" height="14" fill="#9370DB" />
    <rect x="10" y="18" width="4" height="4" fill="#8a2be2" />
    <rect x="18" y="18" width="4" height="4" fill="#8a2be2" />
  </g>
  <!-- Frame 3 -->
  <g transform="translate(64, 48)">
    <!-- Body -->
    <rect x="8" y="12" width="16" height="20" fill="#8a2be2" rx="2" />
    <!-- Head -->
    <rect x="6" y="0" width="20" height="16" fill="#ffccaa" rx="2" />
    <!-- Hat -->
    <rect x="4" y="0" width="24" height="6" fill="#9932cc" rx="1" />
    <!-- Eyes (moved to right side) -->
    <circle cx="20" cy="8" r="1.5" fill="#000000" />
    <!-- Mustache (shifted to right) -->
    <rect x="14" y="12" width="8" height="2" fill="#5e35b1" />
    <!-- Arms -->
    <rect x="4" y="14" width="4" height="6" fill="#ffccaa" />
    <rect x="24" y="14" width="4" height="6" fill="#ffccaa" />
    <!-- Feet -->
    <rect x="6" y="32" width="8" height="4" fill="#9932cc" />
    <rect x="18" y="32" width="8" height="4" fill="#9932cc" />
    <!-- Overalls -->
    <rect x="10" y="18" width="12" height="14" fill="#9370DB" />
    <rect x="10" y="18" width="4" height="4" fill="#8a2be2" />
    <rect x="18" y="18" width="4" height="4" fill="#8a2be2" />
  </g>
  <!-- Frame 4 -->
  <g transform="translate(96, 48)">
    <!-- Body -->
    <rect x="8" y="12" width="16" height="20" fill="#8a2be2" rx="2" />
    <!-- Head -->
    <rect x="6" y="0" width="20" height="16" fill="#ffccaa" rx="2" />
    <!-- Hat -->
    <rect x="4" y="0" width="24" height="6" fill="#9932cc" rx="1" />
    <!-- Eyes (moved to right side) -->
    <circle cx="20" cy="8" r="1.5" fill="#000000" />
    <!-- Mustache (shifted to right) -->
    <rect x="14" y="12" width="8" height="2" fill="#5e35b1" />
    <!-- Arms -->
    <rect x="4" y="14" width="4" height="6" fill="#ffccaa" />
    <rect x="24" y="14" width="4" height="6" fill="#ffccaa" />
    <!-- Feet -->
    <rect x="8" y="32" width="6" height="4" fill="#9932cc" />
    <rect x="16" y="32" width="6" height="4" fill="#9932cc" />
    <!-- Overalls -->
    <rect x="10" y="18" width="12" height="14" fill="#9370DB" />
    <rect x="10" y="18" width="4" height="4" fill="#8a2be2" />
    <rect x="18" y="18" width="4" height="4" fill="#8a2be2" />
  </g>
</svg>